<mxfile host="app.diagrams.net" agent="Mozilla/5.0 (Windows NT 10.0; Win64; x64) AppleWebKit/537.36 (KHTML, like Gecko) Chrome/131.0.0.0 Safari/537.36" version="24.8.6">
  <diagram name="Page-1" id="7Ki192BjsK3gKE65wrBq">
    <mxGraphModel dx="875" dy="521" grid="1" gridSize="10" guides="1" tooltips="1" connect="1" arrows="1" fold="1" page="1" pageScale="1" pageWidth="1169" pageHeight="827" math="0" shadow="0">
      <root>
        <mxCell id="0" />
        <mxCell id="1" parent="0" />
        <mxCell id="619k3SuyHF_MiyLregLK-13" value="FSM" style="whiteSpace=wrap;html=1;aspect=fixed;" vertex="1" parent="1">
          <mxGeometry x="160" y="160" width="80" height="80" as="geometry" />
        </mxCell>
        <mxCell id="619k3SuyHF_MiyLregLK-16" value="" style="triangle;whiteSpace=wrap;html=1;rotation=-90;" vertex="1" parent="1">
          <mxGeometry x="190" y="210" width="20" height="40" as="geometry" />
        </mxCell>
        <mxCell id="619k3SuyHF_MiyLregLK-17" value="" style="endArrow=none;html=1;rounded=0;entryX=0;entryY=0.25;entryDx=0;entryDy=0;startArrow=oval;startFill=0;" edge="1" parent="1" target="619k3SuyHF_MiyLregLK-13">
          <mxGeometry width="50" height="50" relative="1" as="geometry">
            <mxPoint x="130" y="180" as="sourcePoint" />
            <mxPoint x="150" y="160" as="targetPoint" />
          </mxGeometry>
        </mxCell>
        <mxCell id="619k3SuyHF_MiyLregLK-18" value="" style="endArrow=none;html=1;rounded=0;entryX=0;entryY=0.75;entryDx=0;entryDy=0;startArrow=oval;startFill=0;" edge="1" parent="1" target="619k3SuyHF_MiyLregLK-13">
          <mxGeometry width="50" height="50" relative="1" as="geometry">
            <mxPoint x="130" y="220" as="sourcePoint" />
            <mxPoint x="120" y="230" as="targetPoint" />
          </mxGeometry>
        </mxCell>
        <mxCell id="619k3SuyHF_MiyLregLK-19" value="&lt;i&gt;op&lt;/i&gt;" style="text;html=1;align=center;verticalAlign=middle;resizable=0;points=[];autosize=1;strokeColor=none;fillColor=none;" vertex="1" parent="1">
          <mxGeometry x="84" y="163" width="40" height="30" as="geometry" />
        </mxCell>
        <mxCell id="619k3SuyHF_MiyLregLK-20" value="&lt;i&gt;select&lt;/i&gt;" style="text;html=1;align=center;verticalAlign=middle;resizable=0;points=[];autosize=1;strokeColor=none;fillColor=none;" vertex="1" parent="1">
          <mxGeometry x="70" y="203" width="50" height="30" as="geometry" />
        </mxCell>
        <mxCell id="619k3SuyHF_MiyLregLK-22" value="" style="endArrow=none;html=1;rounded=0;entryX=0;entryY=0.5;entryDx=0;entryDy=0;" edge="1" parent="1" target="619k3SuyHF_MiyLregLK-16">
          <mxGeometry width="50" height="50" relative="1" as="geometry">
            <mxPoint x="200" y="270" as="sourcePoint" />
            <mxPoint x="180" y="270" as="targetPoint" />
          </mxGeometry>
        </mxCell>
        <mxCell id="619k3SuyHF_MiyLregLK-23" value="&lt;i&gt;clk&lt;/i&gt;" style="text;html=1;align=center;verticalAlign=middle;resizable=0;points=[];autosize=1;strokeColor=none;fillColor=none;" vertex="1" parent="1">
          <mxGeometry x="180" y="268" width="40" height="30" as="geometry" />
        </mxCell>
        <mxCell id="619k3SuyHF_MiyLregLK-24" value="" style="endArrow=oval;html=1;rounded=0;exitX=1;exitY=0.25;exitDx=0;exitDy=0;endFill=0;" edge="1" parent="1" source="619k3SuyHF_MiyLregLK-13">
          <mxGeometry width="50" height="50" relative="1" as="geometry">
            <mxPoint x="330" y="240" as="sourcePoint" />
            <mxPoint x="270" y="180" as="targetPoint" />
          </mxGeometry>
        </mxCell>
        <mxCell id="619k3SuyHF_MiyLregLK-25" value="" style="endArrow=oval;html=1;rounded=0;exitX=1;exitY=0.75;exitDx=0;exitDy=0;endFill=0;" edge="1" parent="1" source="619k3SuyHF_MiyLregLK-13">
          <mxGeometry width="50" height="50" relative="1" as="geometry">
            <mxPoint x="380" y="330" as="sourcePoint" />
            <mxPoint x="270" y="220" as="targetPoint" />
          </mxGeometry>
        </mxCell>
        <mxCell id="619k3SuyHF_MiyLregLK-26" value="&lt;i&gt;valid&lt;/i&gt;" style="text;html=1;align=center;verticalAlign=middle;resizable=0;points=[];autosize=1;strokeColor=none;fillColor=none;" vertex="1" parent="1">
          <mxGeometry x="275" y="163" width="50" height="30" as="geometry" />
        </mxCell>
        <mxCell id="619k3SuyHF_MiyLregLK-27" value="&lt;i&gt;rw&lt;/i&gt;" style="text;html=1;align=center;verticalAlign=middle;resizable=0;points=[];autosize=1;strokeColor=none;fillColor=none;" vertex="1" parent="1">
          <mxGeometry x="280" y="203" width="40" height="30" as="geometry" />
        </mxCell>
      </root>
    </mxGraphModel>
  </diagram>
</mxfile>
